<?xml version="1.0" encoding="UTF-8" standalone="no"?>
<!DOCTYPE svg PUBLIC "-//W3C//DTD SVG 1.1//EN"
 "http://www.w3.org/Graphics/SVG/1.1/DTD/svg11.dtd">
<!-- Generated by graphviz version 2.38.0 (20140413.2041)
 -->
<!-- Title: G Pages: 1 -->
<svg width="259pt" height="219pt"
 viewBox="0.00 0.00 259.20 219.00" xmlns="http://www.w3.org/2000/svg" xmlns:xlink="http://www.w3.org/1999/xlink">
<g id="graph0" class="graph" transform="scale(1 1) rotate(0) translate(4 215)">
<title>G</title>
<polygon fill="white" stroke="none" points="-4,4 -4,-215 255.203,-215 255.203,4 -4,4"/>
<g id="clust1" class="cluster"><title>cluster_Global</title>
<path fill="none" stroke="gray" d="M20,-8C20,-8 231.203,-8 231.203,-8 237.203,-8 243.203,-14 243.203,-20 243.203,-20 243.203,-191 243.203,-191 243.203,-197 237.203,-203 231.203,-203 231.203,-203 20,-203 20,-203 14,-203 8,-197 8,-191 8,-191 8,-20 8,-20 8,-14 14,-8 20,-8"/>
<text text-anchor="middle" x="125.602" y="-190.2" font-family="Times,serif" font-size="11.00" fill="gray">Global</text>
</g>
<g id="clust2" class="cluster"><title>cluster_\Ciarand</title>
<path fill="none" stroke="gray" d="M28,-16C28,-16 223.203,-16 223.203,-16 229.203,-16 235.203,-22 235.203,-28 235.203,-28 235.203,-164 235.203,-164 235.203,-170 229.203,-176 223.203,-176 223.203,-176 28,-176 28,-176 22,-176 16,-170 16,-164 16,-164 16,-28 16,-28 16,-22 22,-16 28,-16"/>
<text text-anchor="middle" x="125.602" y="-163.2" font-family="Times,serif" font-size="11.00" fill="gray">Ciarand</text>
</g>
<g id="clust3" class="cluster"><title>cluster_\Ciarand\Utils</title>
<path fill="none" stroke="gray" d="M36,-24C36,-24 215.203,-24 215.203,-24 221.203,-24 227.203,-30 227.203,-36 227.203,-36 227.203,-137 227.203,-137 227.203,-143 221.203,-149 215.203,-149 215.203,-149 36,-149 36,-149 30,-149 24,-143 24,-137 24,-137 24,-36 24,-36 24,-30 30,-24 36,-24"/>
<text text-anchor="middle" x="125.602" y="-136.2" font-family="Times,serif" font-size="11.00" fill="gray">Utils</text>
</g>
<!-- \\Ciarand\\Utils\\Failure -->
<g id="node1" class="node"><title>\\Ciarand\\Utils\\Failure</title>
<polygon fill="none" stroke="black" points="219.203,-122 165.203,-122 165.203,-86 219.203,-86 219.203,-122"/>
<text text-anchor="middle" x="192.203" y="-100.7" font-family="Times,serif" font-size="11.00">Failure</text>
</g>
<!-- \\Ciarand\\Utils\\Result -->
<g id="node2" class="node"><title>\\Ciarand\\Utils\\Result</title>
<polygon fill="none" stroke="black" points="93.305,-95 31.8981,-95 31.8981,-59 93.305,-59 93.305,-95"/>
<text text-anchor="start" x="40" y="-79.2" font-family="Times,serif" font-size="11.00">«abstract»</text>
<text text-anchor="start" x="48.5454" y="-68.2" font-family="Times,serif" font-size="11.00">Result</text>
</g>
<!-- \\Ciarand\\Utils\\Failure&#45;&gt;\\Ciarand\\Utils\\Result -->
<g id="edge1" class="edge"><title>\\Ciarand\\Utils\\Failure&#45;&gt;\\Ciarand\\Utils\\Result</title>
<path fill="none" stroke="black" d="M165.073,-98.471C147.234,-94.6963 123.273,-89.6262 103.115,-85.3608"/>
<polygon fill="none" stroke="black" points="103.779,-81.9239 93.2707,-83.2779 102.33,-88.7723 103.779,-81.9239"/>
</g>
<!-- \\Ciarand\\Utils\\Success -->
<g id="node3" class="node"><title>\\Ciarand\\Utils\\Success</title>
<polygon fill="none" stroke="black" points="219.203,-68 165.203,-68 165.203,-32 219.203,-32 219.203,-68"/>
<text text-anchor="middle" x="192.203" y="-46.7" font-family="Times,serif" font-size="11.00">Success</text>
</g>
<!-- \\Ciarand\\Utils\\Success&#45;&gt;\\Ciarand\\Utils\\Result -->
<g id="edge2" class="edge"><title>\\Ciarand\\Utils\\Success&#45;&gt;\\Ciarand\\Utils\\Result</title>
<path fill="none" stroke="black" d="M165.073,-55.529C147.234,-59.3037 123.273,-64.3738 103.115,-68.6392"/>
<polygon fill="none" stroke="black" points="102.33,-65.2277 93.2707,-70.7221 103.779,-72.0761 102.33,-65.2277"/>
</g>
</g>
</svg>
